<svg width="129" height="22" viewBox="0 0 129 22" fill="none" xmlns="http://www.w3.org/2000/svg">
<path d="M29.6392 7.19105V4.90909H40.3906V7.19105H36.3828V18H33.647V7.19105H29.6392ZM45.1607 18.1918C44.1507 18.1918 43.2814 17.9872 42.5527 17.5781C41.8283 17.1648 41.2701 16.581 40.878 15.8267C40.486 15.0682 40.29 14.1712 40.29 13.1357C40.29 12.1257 40.486 11.2393 40.878 10.4766C41.2701 9.71378 41.8219 9.11932 42.5336 8.69318C43.2495 8.26705 44.089 8.05398 45.052 8.05398C45.6998 8.05398 46.3027 8.15838 46.861 8.36719C47.4235 8.57173 47.9135 8.88068 48.3311 9.29403C48.753 9.70739 49.0811 10.2273 49.3155 10.8537C49.5499 11.4759 49.6671 12.2045 49.6671 13.0398V13.7876H41.3766V12.1001H47.1039C47.1039 11.7081 47.0186 11.3608 46.8482 11.0582C46.6777 10.7557 46.4412 10.5192 46.1387 10.3487C45.8404 10.174 45.4931 10.0866 45.0968 10.0866C44.6834 10.0866 44.3169 10.1825 43.9973 10.3743C43.682 10.5618 43.4348 10.8153 43.2559 11.1349C43.0769 11.4503 42.9853 11.8018 42.981 12.1896V13.794C42.981 14.2798 43.0705 14.6996 43.2495 15.0533C43.4327 15.407 43.6905 15.6797 44.0229 15.8714C44.3553 16.0632 44.7495 16.1591 45.2054 16.1591C45.508 16.1591 45.785 16.1165 46.0364 16.0312C46.2878 15.946 46.503 15.8182 46.682 15.6477C46.861 15.4773 46.9973 15.2685 47.0911 15.0213L49.6096 15.1875C49.4817 15.7926 49.2196 16.321 48.8233 16.7727C48.4313 17.2202 47.9242 17.5696 47.302 17.821C46.6841 18.0682 45.9703 18.1918 45.1607 18.1918ZM55.8801 18.1918C54.8745 18.1918 54.0094 17.9787 53.285 17.5526C52.5648 17.1222 52.0108 16.5256 51.623 15.7628C51.2395 15 51.0478 14.1222 51.0478 13.1293C51.0478 12.1236 51.2417 11.2415 51.6294 10.483C52.0215 9.72017 52.5776 9.12571 53.2978 8.69957C54.0179 8.26918 54.8745 8.05398 55.8674 8.05398C56.7239 8.05398 57.4739 8.20952 58.1174 8.5206C58.7608 8.83168 59.2701 9.26847 59.6451 9.83097C60.0201 10.3935 60.2267 11.054 60.2651 11.8125H57.6955C57.623 11.3224 57.4313 10.9283 57.1202 10.63C56.8134 10.3274 56.4107 10.1761 55.9121 10.1761C55.4902 10.1761 55.1216 10.2912 54.8063 10.5213C54.4952 10.7472 54.2523 11.0774 54.0776 11.5121C53.9029 11.9467 53.8155 12.473 53.8155 13.0909C53.8155 13.7173 53.9007 14.25 54.0712 14.6889C54.2459 15.1278 54.4909 15.4624 54.8063 15.6925C55.1216 15.9226 55.4902 16.0376 55.9121 16.0376C56.2232 16.0376 56.5023 15.9737 56.7495 15.8459C57.0009 15.718 57.2076 15.5327 57.3695 15.2898C57.5357 15.0426 57.6444 14.7464 57.6955 14.4013H60.2651C60.2225 15.1513 60.0179 15.8118 59.6515 16.3828C59.2892 16.9496 58.7885 17.3928 58.1493 17.7124C57.5101 18.032 56.7537 18.1918 55.8801 18.1918ZM64.7315 12.3239V18H62.0085V4.90909H64.6548V9.91406H64.7699C64.9915 9.33452 65.3494 8.88068 65.8438 8.55256C66.3381 8.22017 66.9581 8.05398 67.7038 8.05398C68.3857 8.05398 68.9801 8.20312 69.4872 8.50142C69.9986 8.79545 70.3949 9.21946 70.6761 9.77344C70.9616 10.3232 71.1023 10.9815 71.098 11.7486V18H68.375V12.2344C68.3793 11.6293 68.2259 11.1584 67.9148 10.8217C67.608 10.4851 67.1776 10.3168 66.6236 10.3168C66.2528 10.3168 65.9247 10.3956 65.6392 10.5533C65.358 10.7109 65.1364 10.9411 64.9744 11.2436C64.8168 11.5419 64.7358 11.902 64.7315 12.3239ZM78.4632 8.18182V10.2273H72.5506V8.18182H78.4632ZM73.8929 5.82955H76.6159V14.983C76.6159 15.2344 76.6543 15.4304 76.731 15.571C76.8077 15.7074 76.9142 15.8033 77.0506 15.8587C77.1912 15.9141 77.3532 15.9418 77.5364 15.9418C77.6642 15.9418 77.7921 15.9311 77.9199 15.9098C78.0478 15.8842 78.1458 15.8651 78.214 15.8523L78.6422 17.8786C78.5059 17.9212 78.3141 17.9702 78.0669 18.0256C77.8198 18.0852 77.5194 18.1214 77.1657 18.1342C76.5094 18.1598 75.9341 18.0724 75.4398 17.8722C74.9498 17.6719 74.5684 17.3608 74.2956 16.9389C74.0229 16.517 73.8887 15.9844 73.8929 15.3409V5.82955ZM80.237 18V8.18182H82.877V9.89489H82.9792C83.1582 9.28551 83.4586 8.82528 83.8805 8.5142C84.3024 8.19886 84.7882 8.04119 85.3379 8.04119C85.4743 8.04119 85.6213 8.04972 85.7789 8.06676C85.9366 8.08381 86.0751 8.10724 86.1944 8.13707V10.5533C86.0666 10.5149 85.8897 10.4808 85.6639 10.451C85.438 10.4212 85.2314 10.4062 85.0439 10.4062C84.6433 10.4062 84.2853 10.4936 83.97 10.6683C83.6589 10.8388 83.4118 11.0774 83.2285 11.3842C83.0495 11.6911 82.96 12.0447 82.96 12.4453V18H80.237ZM91.5813 18.1918C90.5884 18.1918 89.7298 17.9808 89.0053 17.5589C88.2852 17.1328 87.729 16.5405 87.337 15.782C86.945 15.0192 86.7489 14.1349 86.7489 13.1293C86.7489 12.1151 86.945 11.2287 87.337 10.4702C87.729 9.70739 88.2852 9.11506 89.0053 8.69318C89.7298 8.26705 90.5884 8.05398 91.5813 8.05398C92.5742 8.05398 93.4308 8.26705 94.1509 8.69318C94.8754 9.11506 95.4336 9.70739 95.8256 10.4702C96.2177 11.2287 96.4137 12.1151 96.4137 13.1293C96.4137 14.1349 96.2177 15.0192 95.8256 15.782C95.4336 16.5405 94.8754 17.1328 94.1509 17.5589C93.4308 17.9808 92.5742 18.1918 91.5813 18.1918ZM91.5941 16.0824C92.0458 16.0824 92.4229 15.9545 92.7255 15.6989C93.0281 15.4389 93.256 15.0852 93.4094 14.6378C93.5671 14.1903 93.646 13.6811 93.646 13.1101C93.646 12.5391 93.5671 12.0298 93.4094 11.5824C93.256 11.1349 93.0281 10.7812 92.7255 10.5213C92.4229 10.2614 92.0458 10.1314 91.5941 10.1314C91.1381 10.1314 90.7546 10.2614 90.4435 10.5213C90.1367 10.7812 89.9045 11.1349 89.7468 11.5824C89.5934 12.0298 89.5167 12.5391 89.5167 13.1101C89.5167 13.6811 89.5934 14.1903 89.7468 14.6378C89.9045 15.0852 90.1367 15.4389 90.4435 15.6989C90.7546 15.9545 91.1381 16.0824 91.5941 16.0824ZM100.907 12.3239V18H98.1843V8.18182H100.779V9.91406H100.895C101.112 9.34304 101.476 8.89133 101.988 8.55895C102.499 8.2223 103.119 8.05398 103.848 8.05398C104.529 8.05398 105.124 8.20312 105.631 8.50142C106.138 8.79972 106.532 9.22585 106.814 9.77983C107.095 10.3295 107.235 10.9858 107.235 11.7486V18H104.512V12.2344C104.517 11.6335 104.363 11.1648 104.052 10.8281C103.741 10.4872 103.313 10.3168 102.767 10.3168C102.401 10.3168 102.077 10.3956 101.796 10.5533C101.519 10.7109 101.301 10.9411 101.144 11.2436C100.99 11.5419 100.912 11.902 100.907 12.3239ZM109.382 18V8.18182H112.105V18H109.382ZM110.749 6.91619C110.345 6.91619 109.997 6.78196 109.708 6.51349C109.422 6.24077 109.279 5.91477 109.279 5.53551C109.279 5.16051 109.422 4.83878 109.708 4.57031C109.997 4.29758 110.345 4.16122 110.749 4.16122C111.154 4.16122 111.499 4.29758 111.785 4.57031C112.075 4.83878 112.22 5.16051 112.22 5.53551C112.22 5.91477 112.075 6.24077 111.785 6.51349C111.499 6.78196 111.154 6.91619 110.749 6.91619ZM116.753 15.1747L116.76 11.9084H117.156L120.301 8.18182H123.426L119.201 13.1165H118.556L116.753 15.1747ZM114.286 18V4.90909H117.009V18H114.286ZM120.422 18L117.533 13.7237L119.348 11.7997L123.612 18H120.422ZM126.354 18.1662C125.932 18.1662 125.57 18.017 125.267 17.7188C124.969 17.4162 124.82 17.054 124.82 16.6321C124.82 16.2145 124.969 15.8565 125.267 15.5582C125.57 15.2599 125.932 15.1108 126.354 15.1108C126.763 15.1108 127.121 15.2599 127.428 15.5582C127.735 15.8565 127.888 16.2145 127.888 16.6321C127.888 16.9134 127.816 17.1712 127.671 17.4055C127.53 17.6357 127.345 17.821 127.115 17.9616C126.885 18.098 126.631 18.1662 126.354 18.1662Z" fill="#14274E"/>
<path d="M22 12H2" stroke="#14274E" stroke-width="2" stroke-linecap="round" stroke-linejoin="round"/>
<path d="M5.45 6.25834L2 12V17C2 17.442 2.21071 17.866 2.58579 18.1785C2.96086 18.4911 3.46957 18.6667 4 18.6667H20C20.5304 18.6667 21.0391 18.4911 21.4142 18.1785C21.7893 17.866 22 17.442 22 17V12L18.55 6.25834C18.3844 5.98067 18.1292 5.74699 17.813 5.58358C17.4967 5.42017 17.1321 5.33351 16.76 5.33334H7.24C6.86792 5.33351 6.50326 5.42017 6.18704 5.58358C5.87083 5.74699 5.61558 5.98067 5.45 6.25834V6.25834Z" stroke="#14274E" stroke-width="2" stroke-linecap="round" stroke-linejoin="round"/>
<path d="M6 15.3333H6.01" stroke="#14274E" stroke-width="2" stroke-linecap="round" stroke-linejoin="round"/>
<path d="M10 15.3333H10.01" stroke="#14274E" stroke-width="2" stroke-linecap="round" stroke-linejoin="round"/>
</svg>
